<?xml version="1.0" standalone="no"?>
<!DOCTYPE svg PUBLIC "-//W3C//DTD SVG 20010904//EN"
 "http://www.w3.org/TR/2001/REC-SVG-20010904/DTD/svg10.dtd">
<svg version="1.0" xmlns="http://www.w3.org/2000/svg"
 width="128.000000pt" height="128.000000pt" viewBox="0 0 128.000000 128.000000"
 preserveAspectRatio="xMidYMid meet">
<metadata>
Created by potrace 1.16, written by Peter Selinger 2001-2019
</metadata>
<g transform="translate(0.000000,128.000000) scale(0.100000,-0.100000)"
fill="#000000" stroke="none">
<path d="M502 1242 c-35 -67 -40 -118 -26 -257 3 -33 9 -64 14 -70 4 -5 10
-35 14 -65 4 -30 10 -65 13 -78 4 -17 2 -21 -11 -16 -9 3 -16 12 -16 19 0 21
-25 60 -40 64 -8 2 -39 5 -68 6 -29 1 -58 7 -65 14 -8 8 -7 11 7 11 9 0 14 5
11 10 -11 18 -32 10 -44 -17 -8 -18 -15 -23 -23 -15 -6 6 -16 8 -22 6 -7 -3
-20 4 -30 15 -13 14 -23 17 -35 11 -9 -5 -31 -13 -48 -19 -39 -12 -56 4 -21
19 21 9 21 10 2 7 -11 -1 -28 4 -37 12 -15 12 -16 10 -10 -20 3 -19 13 -39 20
-44 9 -7 15 -36 17 -82 l3 -71 -40 -4 c-26 -2 -41 1 -44 9 -3 7 -8 13 -12 13
-11 0 0 -554 11 -561 5 -3 9 -9 9 -13 -3 -22 0 -30 7 -20 5 9 35 4 106 -17
l99 -28 68 62 c81 71 110 111 139 187 39 99 53 121 107 159 l53 38 -21 19
c-28 25 -49 75 -49 116 l1 33 14 -32 c14 -32 28 -39 123 -58 24 -5 32 -3 32 8
0 8 6 17 14 20 17 7 48 66 40 78 -3 5 -1 9 5 9 23 0 31 -33 20 -88 -6 -29 -4
-33 20 -37 53 -11 74 -20 85 -38 8 -13 8 -20 -3 -26 -9 -6 -10 -10 -2 -12 13
-5 30 -107 31 -177 l0 -43 -41 3 c-29 2 -43 -1 -47 -11 -3 -9 0 -12 10 -9 8 4
21 2 29 -3 9 -5 -7 -8 -42 -6 -31 1 -55 5 -53 8 2 4 -12 10 -32 13 -19 4 -42
10 -51 13 -9 4 -6 -4 8 -19 13 -13 30 -22 37 -20 6 2 12 -3 12 -12 0 -19 -8
-19 -84 -5 -83 15 -101 8 -137 -56 -17 -30 -36 -55 -42 -55 -8 0 -8 -3 1 -8 9
-6 0 -14 -28 -25 -28 -11 -40 -21 -40 -35 0 -11 -3 -27 -6 -36 -6 -14 31 -16
369 -16 324 0 376 2 381 15 3 8 16 15 29 15 14 0 39 3 56 6 l31 6 0 197 c0
183 -1 199 -22 238 -19 36 -21 45 -9 66 16 30 6 130 -13 124 -7 -2 -10 -25 -8
-65 2 -34 1 -62 -2 -62 -3 0 -17 5 -31 12 -22 10 -25 18 -27 62 l-2 51 -3 -48
c-5 -53 2 -51 -83 -22 -37 12 -52 47 -31 68 6 6 11 52 11 108 0 54 5 110 10
125 12 31 39 54 56 47 32 -12 24 42 -12 87 -7 8 -21 55 -30 103 -10 48 -21 82
-25 76 -4 -8 -15 3 -28 29 l-21 42 -183 0 c-133 0 -187 -3 -196 -12 -11 -10
-13 -10 -7 0 5 9 -7 12 -47 12 -53 0 -56 -1 -75 -38z m318 -398 c27 -35 56
-62 62 -60 7 1 10 1 6 -1 -5 -3 -8 -10 -8 -17 0 -6 -20 -17 -45 -24 -39 -10
-55 -9 -137 13 -51 14 -101 25 -110 25 -22 0 -24 -28 -3 -36 23 -9 18 -24 -9
-24 -29 0 -41 15 -51 57 -10 49 0 71 31 65 19 -3 34 4 60 29 33 32 94 51 137
41 9 -2 39 -33 67 -68z"/>
<path d="M1240 1252 c0 -15 5 -33 11 -39 9 -9 8 -19 -6 -39 -13 -20 -14 -28
-5 -34 10 -6 11 -34 6 -111 -8 -122 -13 -146 -32 -153 -9 -4 -14 -20 -13 -48
1 -24 3 -35 6 -25 6 23 19 22 38 -5 13 -20 17 -21 25 -8 15 23 13 177 -2 182
-10 4 -10 10 0 32 7 17 12 74 12 151 0 118 -1 125 -20 125 -15 0 -20 -7 -20
-28z"/>
</g>
</svg>
